<?xml version="1.0" encoding="utf-8"?>
<!-- Generator: Adobe Illustrator 26.5.0, SVG Export Plug-In . SVG Version: 6.00 Build 0)  -->
<svg version="1.1" id="图层_1" xmlns="http://www.w3.org/2000/svg" xmlns:xlink="http://www.w3.org/1999/xlink" x="0px" y="0px"
	 viewBox="0 0 100 50" style="enable-background:new 0 0 100 50;" xml:space="preserve">
<style type="text/css">
	.st0{fill:none;stroke:#000000;stroke-width:9.430000e-02;stroke-miterlimit:10;}
</style>
<path class="st0" d="M50,25c0-12.1,9.8-22,22-22s22,9.8,22,22s-9.8,22-22,22S50,37.2,50,25c0-12.1-9.8-22-22-22S6,12.9,6,25
	s9.8,22,22,22S50,37.1,50,25c0-8.1,4.4-15.2,11-19c6.6,3.8,11,10.9,11,19s-4.4,15.2-11,19l0,0c-3.2,1.9-7,2.9-11,2.9
	c-4,0-7.8-1.1-11-2.9l0,0c-6.6-3.8-11-10.9-11-19S32.4,9.8,39,6l0,0C42.2,4.1,46,3,50,3s7.8,1.1,11,2.9l0,0"/>
</svg>
